<svg width="55" height="22" viewBox="0 0 55 22" version="1.1" xmlns="http://www.w3.org/2000/svg" xmlns:xlink="http://www.w3.org/1999/xlink" xmlns:figma="http://www.figma.com/figma/ns">
<title>Group</title>
<desc>Created using Figma</desc>
<g id="Canvas" transform="translate(516 1119)" figma:type="canvas">
<g id="Group" style="mix-blend-mode:normal;" figma:type="frame">
<g id="KARSYNC" style="mix-blend-mode:normal;" figma:type="text">
<use xlink:href="#path0_fill" transform="translate(-516 -1109)" fill="#23438A" style="mix-blend-mode:normal;"/>
</g>
<g id="Group" style="mix-blend-mode:normal;" figma:type="frame">
<g id="Ellipse" style="mix-blend-mode:normal;" figma:type="ellipse">
<mask id="mask0_outline_ins">
<use xlink:href="#path1_fill" fill="white" transform="translate(-494 -1111)"/>
</mask>
<g mask="url(#mask0_outline_ins)">
<use xlink:href="#path2_stroke_2x" transform="translate(-494 -1111)" fill="url(#paint1_linear)" style="mix-blend-mode:normal;"/>
</g>
</g>
<g id="Ellipse" style="mix-blend-mode:normal;" figma:type="ellipse">
<mask id="mask1_outline_ins">
<use xlink:href="#path3_fill" fill="white" transform="translate(-497.5 -1115)"/>
</mask>
<g mask="url(#mask1_outline_ins)">
<use xlink:href="#path4_stroke_2x" transform="translate(-497.5 -1115)" fill="url(#paint2_linear)" style="mix-blend-mode:normal;"/>
</g>
</g>
<g id="Ellipse" style="mix-blend-mode:normal;" figma:type="ellipse">
<mask id="mask2_outline_ins">
<use xlink:href="#path5_fill" fill="white" transform="translate(-501 -1119)"/>
</mask>
<g mask="url(#mask2_outline_ins)">
<use xlink:href="#path6_stroke_2x" transform="translate(-501 -1119)" fill="url(#paint3_linear)" style="mix-blend-mode:normal;"/>
</g>
</g>
</g>
</g>
</g>
<defs>
<linearGradient id="paint1_linear" x1="0" y1="0" x2="1" y2="0" gradientUnits="userSpaceOnUse" gradientTransform="matrix(1.36901e-14 3.5 -6 2.59931e-14 9 -3.21471e-16)">
<stop offset="0.97" stop-color="#72C081"/>
<stop offset="1" stop-color="#72C081" stop-opacity="0"/>
</linearGradient>
<linearGradient id="paint2_linear" x1="0" y1="0" x2="1" y2="0" gradientUnits="userSpaceOnUse" gradientTransform="matrix(2.16759e-14 5.5 -9.5 4.08463e-14 14.25 -5.05169e-16)">
<stop offset="0.98" stop-color="#72C081"/>
<stop offset="1" stop-color="#72C081" stop-opacity="0"/>
</linearGradient>
<linearGradient id="paint3_linear" x1="0" y1="0" x2="1" y2="0" gradientUnits="userSpaceOnUse" gradientTransform="matrix(2.96618e-14 6.5 -13 4.8273e-14 19.5 -5.97018e-16)">
<stop offset="0.98" stop-color="#72C081"/>
<stop offset="1" stop-color="#72C081" stop-opacity="0"/>
</linearGradient>
<path id="path0_fill" d="M 0.864 3.036L 0.864 11.604L 1.68 11.604L 1.68 8.664L 3.324 7.14L 6.888 11.604L 7.944 11.604L 3.936 6.576L 7.764 3.036L 6.66 3.036L 1.68 7.644L 1.68 3.036L 0.864 3.036ZM 9.85725 8.244L 11.5733 3.852L 13.2292 8.244L 9.85725 8.244ZM 11.1532 3.036L 7.70925 11.604L 8.57325 11.604L 9.60525 8.94L 13.5052 8.94L 14.5493 11.604L 15.4253 11.604L 12.0652 3.036L 11.1532 3.036ZM 17.0198 7.104L 17.0198 3.732L 20.0678 3.732C 20.6918 3.732 21.1558 3.884 21.4598 4.188C 21.7638 4.492 21.9158 4.908 21.9158 5.436C 21.9158 5.7 21.8638 5.936 21.7598 6.144C 21.6638 6.344 21.5318 6.516 21.3638 6.66C 21.1958 6.804 20.9998 6.916 20.7758 6.996C 20.5518 7.068 20.3158 7.104 20.0678 7.104L 17.0198 7.104ZM 16.2038 3.036L 16.2038 11.604L 17.0198 11.604L 17.0198 7.8L 20.1158 7.8C 20.4998 7.784 20.7998 7.848 21.0158 7.992C 21.2398 8.136 21.4078 8.328 21.5198 8.568C 21.6398 8.8 21.7158 9.068 21.7478 9.372C 21.7878 9.668 21.8158 9.968 21.8318 10.272C 21.8398 10.36 21.8478 10.464 21.8558 10.584C 21.8638 10.704 21.8718 10.828 21.8798 10.956C 21.8958 11.076 21.9158 11.196 21.9398 11.316C 21.9718 11.428 22.0118 11.524 22.0598 11.604L 22.9598 11.604C 22.8718 11.5 22.7998 11.356 22.7438 11.172C 22.6958 10.98 22.6598 10.78 22.6358 10.572C 22.6118 10.356 22.5958 10.144 22.5878 9.936C 22.5798 9.728 22.5718 9.552 22.5638 9.408C 22.5478 9.152 22.5118 8.916 22.4558 8.7C 22.4078 8.476 22.3238 8.28 22.2038 8.112C 22.0918 7.944 21.9438 7.808 21.7598 7.704C 21.5758 7.592 21.3438 7.516 21.0638 7.476L 21.0638 7.452C 21.6158 7.34 22.0318 7.084 22.3118 6.684C 22.5918 6.284 22.7318 5.812 22.7318 5.268C 22.7318 4.884 22.6598 4.552 22.5158 4.272C 22.3798 3.984 22.1918 3.752 21.9518 3.576C 21.7198 3.392 21.4438 3.256 21.1238 3.168C 20.8118 3.08 20.4798 3.036 20.1278 3.036L 16.2038 3.036ZM 24.5918 8.784L 23.7757 8.784C 23.7518 9.312 23.8198 9.764 23.9797 10.14C 24.1478 10.516 24.3837 10.824 24.6878 11.064C 24.9918 11.304 25.3597 11.484 25.7917 11.604C 26.2237 11.716 26.6918 11.772 27.1958 11.772C 27.6998 11.772 28.1317 11.724 28.4917 11.628C 28.8517 11.54 29.1517 11.424 29.3918 11.28C 29.6398 11.128 29.8317 10.96 29.9677 10.776C 30.1118 10.592 30.2198 10.412 30.2917 10.236C 30.3717 10.052 30.4197 9.88 30.4358 9.72C 30.4597 9.56 30.4717 9.432 30.4717 9.336C 30.4717 8.984 30.4117 8.684 30.2917 8.436C 30.1798 8.188 30.0198 7.98 29.8117 7.812C 29.6117 7.636 29.3757 7.492 29.1037 7.38C 28.8398 7.26 28.5557 7.16 28.2518 7.08L 26.1637 6.564C 25.9878 6.524 25.8198 6.472 25.6598 6.408C 25.5077 6.344 25.3717 6.26 25.2517 6.156C 25.1318 6.052 25.0358 5.928 24.9638 5.784C 24.8998 5.632 24.8678 5.456 24.8678 5.256C 24.8678 4.936 24.9277 4.668 25.0478 4.452C 25.1677 4.236 25.3238 4.064 25.5157 3.936C 25.7157 3.8 25.9438 3.704 26.1998 3.648C 26.4637 3.584 26.7357 3.552 27.0157 3.552C 27.3198 3.552 27.6077 3.596 27.8797 3.684C 28.1597 3.764 28.4037 3.888 28.6118 4.056C 28.8277 4.216 28.9997 4.42 29.1277 4.668C 29.2638 4.908 29.3397 5.192 29.3557 5.52L 30.1718 5.52C 30.1718 5.08 30.0838 4.696 29.9077 4.368C 29.7397 4.032 29.5117 3.752 29.2238 3.528C 28.9357 3.304 28.5997 3.136 28.2157 3.024C 27.8318 2.912 27.4278 2.856 27.0038 2.856C 26.4037 2.856 25.9118 2.944 25.5277 3.12C 25.1438 3.288 24.8398 3.496 24.6157 3.744C 24.3997 3.992 24.2517 4.256 24.1717 4.536C 24.0918 4.816 24.0518 5.06 24.0518 5.268C 24.0518 5.604 24.1037 5.888 24.2077 6.12C 24.3197 6.352 24.4638 6.548 24.6398 6.708C 24.8157 6.868 25.0197 6.996 25.2517 7.092C 25.4918 7.188 25.7358 7.268 25.9837 7.332L 27.8918 7.8C 28.0917 7.848 28.2958 7.912 28.5038 7.992C 28.7118 8.064 28.8997 8.16 29.0677 8.28C 29.2438 8.4 29.3837 8.548 29.4878 8.724C 29.5998 8.9 29.6558 9.108 29.6558 9.348C 29.6558 9.66 29.5798 9.928 29.4278 10.152C 29.2757 10.368 29.0837 10.548 28.8517 10.692C 28.6278 10.828 28.3837 10.928 28.1198 10.992C 27.8557 11.056 27.6118 11.088 27.3878 11.088C 26.9957 11.088 26.6278 11.052 26.2838 10.98C 25.9397 10.9 25.6398 10.772 25.3838 10.596C 25.1357 10.42 24.9398 10.184 24.7957 9.888C 24.6517 9.592 24.5837 9.224 24.5918 8.784ZM 34.1543 8.076L 34.1543 11.604L 34.9703 11.604L 34.9703 8.076L 38.3543 3.036L 37.3823 3.036L 34.5743 7.38L 31.7543 3.036L 30.7943 3.036L 34.1543 8.076ZM 39.0903 3.036L 39.0903 11.604L 39.9063 11.604L 39.9063 4.356L 39.9303 4.356L 44.9223 11.604L 45.8343 11.604L 45.8343 3.036L 45.0183 3.036L 45.0183 10.284L 44.9943 10.284L 40.0023 3.036L 39.0903 3.036ZM 53.8155 5.628L 54.6315 5.628C 54.5755 5.18 54.4395 4.784 54.2235 4.44C 54.0155 4.096 53.7515 3.808 53.4315 3.576C 53.1195 3.336 52.7675 3.156 52.3755 3.036C 51.9915 2.916 51.5955 2.856 51.1875 2.856C 50.5155 2.856 49.9235 2.98 49.4115 3.228C 48.9075 3.468 48.4875 3.796 48.1515 4.212C 47.8155 4.62 47.5635 5.092 47.3955 5.628C 47.2275 6.164 47.1435 6.728 47.1435 7.32C 47.1435 7.912 47.2275 8.476 47.3955 9.012C 47.5635 9.548 47.8155 10.02 48.1515 10.428C 48.4875 10.836 48.9075 11.164 49.4115 11.412C 49.9235 11.652 50.5155 11.772 51.1875 11.772C 51.6915 11.772 52.1475 11.692 52.5555 11.532C 52.9715 11.372 53.3315 11.144 53.6355 10.848C 53.9395 10.552 54.1875 10.192 54.3795 9.768C 54.5715 9.344 54.6955 8.868 54.7515 8.34L 53.9355 8.34C 53.8955 8.724 53.8035 9.084 53.6595 9.42C 53.5155 9.748 53.3275 10.036 53.0955 10.284C 52.8635 10.532 52.5875 10.728 52.2675 10.872C 51.9475 11.016 51.5875 11.088 51.1875 11.088C 50.6195 11.088 50.1315 10.98 49.7235 10.764C 49.3155 10.548 48.9795 10.264 48.7155 9.912C 48.4595 9.552 48.2675 9.148 48.1395 8.7C 48.0195 8.244 47.9595 7.784 47.9595 7.32C 47.9595 6.848 48.0195 6.388 48.1395 5.94C 48.2675 5.492 48.4595 5.092 48.7155 4.74C 48.9795 4.38 49.3155 4.092 49.7235 3.876C 50.1315 3.66 50.6195 3.552 51.1875 3.552C 51.4995 3.552 51.7955 3.6 52.0755 3.696C 52.3635 3.784 52.6235 3.916 52.8555 4.092C 53.0955 4.268 53.2955 4.488 53.4555 4.752C 53.6235 5.008 53.7435 5.3 53.8155 5.628Z"/>
<path id="path1_fill" d="M 12 3.5C 12 5.433 9.31371 7 6 7C 2.68629 7 0 5.433 0 3.5C 0 1.567 2.68629 0 6 0C 9.31371 0 12 1.567 12 3.5Z"/>
<path id="path2_stroke_2x" d="M 10 3.5C 10.0305 3.63533 10.0661 3.50497 9.90933 3.68834C 9.75392 3.92599 9.6256 4.02891 9.2349 4.24732C 8.50564 4.67271 7.3664 5 6 5L 6 9C 7.94731 9 9.80806 8.54378 11.2504 7.70243C 12.6436 6.88972 14 5.47315 14 3.5L 10 3.5ZM 6 5C 4.6336 5 3.49436 4.67271 2.7651 4.24732C 2.3744 4.02891 2.24608 3.92599 2.09067 3.68834C 1.93394 3.50497 1.96951 3.63533 2 3.5L -2 3.5C -2 5.47315 -0.643601 6.88972 0.749617 7.70243C 2.19194 8.54378 4.05269 9 6 9L 6 5ZM 2 3.5C 1.96951 3.36467 1.93394 3.49503 2.09067 3.31166C 2.24608 3.07401 2.3744 2.97109 2.7651 2.75268C 3.49436 2.32729 4.6336 2 6 2L 6 -2C 4.05269 -2 2.19194 -1.54378 0.749617 -0.702432C -0.643601 0.110279 -2 1.52685 -2 3.5L 2 3.5ZM 6 2C 7.3664 2 8.50564 2.32729 9.2349 2.75268C 9.6256 2.97109 9.75392 3.07401 9.90933 3.31166C 10.0661 3.49503 10.0305 3.36467 10 3.5L 14 3.5C 14 1.52685 12.6436 0.110279 11.2504 -0.702432C 9.80806 -1.54378 7.94731 -2 6 -2L 6 2Z"/>
<path id="path3_fill" d="M 19 5.5C 19 8.53757 14.7467 11 9.5 11C 4.25329 11 0 8.53757 0 5.5C 0 2.46243 4.25329 0 9.5 0C 14.7467 0 19 2.46243 19 5.5Z"/>
<path id="path4_stroke_2x" d="M 17 5.5C 17 6.00454 16.6309 6.83877 15.2154 7.65823C 13.8518 8.44773 11.8354 9 9.5 9L 9.5 13C 12.4113 13 15.1449 12.3211 17.2196 11.1199C 19.2425 9.9488 21 8.03303 21 5.5L 17 5.5ZM 9.5 9C 7.16456 9 5.14823 8.44773 3.78456 7.65823C 2.36912 6.83877 2 6.00454 2 5.5L -2 5.5C -2 8.03303 -0.24247 9.9488 1.78041 11.1199C 3.85507 12.3211 6.58874 13 9.5 13L 9.5 9ZM 2 5.5C 2 4.99546 2.36912 4.16123 3.78456 3.34177C 5.14823 2.55227 7.16456 2 9.5 2L 9.5 -2C 6.58874 -2 3.85507 -1.32105 1.78041 -0.11994C -0.24247 1.0512 -2 2.96697 -2 5.5L 2 5.5ZM 9.5 2C 11.8354 2 13.8518 2.55227 15.2154 3.34177C 16.6309 4.16123 17 4.99546 17 5.5L 21 5.5C 21 2.96697 19.2425 1.0512 17.2196 -0.11994C 15.1449 -1.32105 12.4113 -2 9.5 -2L 9.5 2Z"/>
<path id="path5_fill" d="M 26 6.5C 26 10.0899 20.1797 13 13 13C 5.8203 13 0 10.0899 0 6.5C 0 2.91015 5.8203 0 13 0C 20.1797 0 26 2.91015 26 6.5Z"/>
<path id="path6_stroke_2x" d="M 24 6.5C 24 7.12927 23.4379 8.23738 21.298 9.30734C 19.1692 10.3882 16.3701 11.0121 13 11L 13 15C 16.8096 14.9879 20.5105 14.1567 23.0868 12.885C 25.652 11.6025 28 9.46058 28 6.5L 24 6.5ZM 13 11C 9.62993 11.0121 6.83077 10.3882 4.70204 9.30734C 2.56211 8.23738 2 7.12927 2 6.5L -2 6.5C -2 9.46058 0.348038 11.6025 2.91318 12.885C 5.48952 14.1567 9.19037 14.9879 13 15L 13 11ZM 2 6.5C 2 5.87073 2.56211 4.76262 4.70204 3.69266C 6.83077 2.61175 9.62993 1.98789 13 2L 13 -2C 9.19037 -1.98789 5.48952 -1.15668 2.91318 0.114952C 0.348038 1.39752 -2 3.53942 -2 6.5L 2 6.5ZM 13 2C 16.3701 1.98789 19.1692 2.61175 21.298 3.69266C 23.4379 4.76262 24 5.87073 24 6.5L 28 6.5C 28 3.53942 25.652 1.39752 23.0868 0.114952C 20.5105 -1.15668 16.8096 -1.98789 13 -2L 13 2Z"/>
</defs>
</svg>
