<svg width="436" height="412" viewBox="0 0 436 412" version="1.1" xmlns="http://www.w3.org/2000/svg" xmlns:xlink="http://www.w3.org/1999/xlink" xmlns:figma="http://www.figma.com/figma/ns">
<title>Group</title>
<desc>Created using Figma</desc>
<g id="Canvas" transform="translate(779 1219)" figma:type="canvas">
<g id="Group" style="mix-blend-mode:normal;" figma:type="frame">
<g id="Ellipse" style="mix-blend-mode:normal;" figma:type="ellipse">
<mask id="mask0_outline_ins">
<use xlink:href="#path0_fill" fill="white" transform="translate(-778.5 -1219)"/>
</mask>
<g mask="url(#mask0_outline_ins)">
<use xlink:href="#path1_stroke_2x" transform="translate(-778.5 -1219)" fill="#FFFFFF" style="mix-blend-mode:normal;"/>
</g>
</g>
<g id="Polygon" style="mix-blend-mode:normal;" figma:type="regular-polygon">
<mask id="mask1_outline_ins">
<use xlink:href="#path2_fill" fill="white" transform="matrix(1 0 0 -1 -766.5 -825)"/>
</mask>
<g mask="url(#mask1_outline_ins)">
<use xlink:href="#path3_stroke_2x" transform="matrix(1 0 0 -1 -766.5 -825)" fill="url(#paint1_linear)" style="mix-blend-mode:normal;"/>
</g>
</g>
<g id="Polygon" style="mix-blend-mode:normal;" figma:type="regular-polygon">
<mask id="mask2_outline_ins">
<use xlink:href="#path4_fill" fill="white" transform="matrix(1 0 0 -1 -766.5 -929)"/>
</mask>
<g mask="url(#mask2_outline_ins)">
<use xlink:href="#path5_stroke_2x" transform="matrix(1 0 0 -1 -766.5 -929)" fill="url(#paint2_linear)" style="mix-blend-mode:normal;"/>
</g>
</g>
</g>
</g>
<defs>
<linearGradient id="paint1_linear" x1="0" y1="0" x2="1" y2="0" gradientUnits="userSpaceOnUse" gradientTransform="matrix(2.51665e-14 309 -411 1.89208e-14 411 -1.89208e-14)">
<stop offset="0.66" stop-color="#FFFFFF"/>
<stop offset="0.660194" stop-color="#000000" stop-opacity="0"/>
</linearGradient>
<linearGradient id="paint2_linear" x1="0" y1="0" x2="1" y2="0" gradientUnits="userSpaceOnUse" gradientTransform="matrix(2.51665e-14 309 -411 1.89208e-14 411 -1.89208e-14)">
<stop offset="0.66" stop-color="#FFFFFF"/>
<stop offset="0.660194" stop-color="#000000" stop-opacity="0"/>
</linearGradient>
<path id="path0_fill" d="M 435 206C 435 319.771 337.622 412 217.5 412C 97.3781 412 0 319.771 0 206C 0 92.2293 97.3781 0 217.5 0C 337.622 0 435 92.2293 435 206Z"/>
<path id="path1_stroke_2x" d="M 415 206C 415 307.715 327.614 392 217.5 392L 217.5 432C 347.63 432 455 331.826 455 206L 415 206ZM 217.5 392C 107.386 392 20 307.715 20 206L -20 206C -20 331.826 87.37 432 217.5 432L 217.5 392ZM 20 206C 20 104.285 107.386 20 217.5 20L 217.5 -20C 87.37 -20 -20 80.1739 -20 206L 20 206ZM 217.5 20C 327.614 20 415 104.285 415 206L 455 206C 455 80.1739 347.63 -20 217.5 -20L 217.5 20Z"/>
<path id="path2_fill" d="M 205.5 0L 383.468 231.75L 27.5318 231.75L 205.5 0Z"/>
<path id="path3_stroke_2x" d="M 205.5 0L 221.362 -12.1813L 205.5 -32.8373L 189.638 -12.1813L 205.5 0ZM 383.468 231.75L 383.468 251.75L 424.044 251.75L 399.331 219.569L 383.468 231.75ZM 27.5318 231.75L 11.6693 219.569L -13.0437 251.75L 27.5318 251.75L 27.5318 231.75ZM 189.638 12.1813L 367.606 243.931L 399.331 219.569L 221.362 -12.1813L 189.638 12.1813ZM 383.468 211.75L 27.5318 211.75L 27.5318 251.75L 383.468 251.75L 383.468 211.75ZM 43.3942 243.931L 221.362 12.1813L 189.638 -12.1813L 11.6693 219.569L 43.3942 243.931Z"/>
<path id="path4_fill" d="M 205.5 0L 383.468 231.75L 27.5318 231.75L 205.5 0Z"/>
<path id="path5_stroke_2x" d="M 205.5 0L 221.362 -12.1813L 205.5 -32.8373L 189.638 -12.1813L 205.5 0ZM 383.468 231.75L 383.468 251.75L 424.044 251.75L 399.331 219.569L 383.468 231.75ZM 27.5318 231.75L 11.6693 219.569L -13.0437 251.75L 27.5318 251.75L 27.5318 231.75ZM 189.638 12.1813L 367.606 243.931L 399.331 219.569L 221.362 -12.1813L 189.638 12.1813ZM 383.468 211.75L 27.5318 211.75L 27.5318 251.75L 383.468 251.75L 383.468 211.75ZM 43.3942 243.931L 221.362 12.1813L 189.638 -12.1813L 11.6693 219.569L 43.3942 243.931Z"/>
</defs>
</svg>
